<!-- Generated by IcoMoon.io -->
<svg version="1.1" xmlns="http://www.w3.org/2000/svg" width="33" height="32" viewBox="0 0 33 32">
<title>discord</title>
<path fill="#7289DA" d="M13.92 13.853c-0.76 0-1.36 0.667-1.36 1.48s0.613 1.48 1.36 1.48c0.76 0 1.36-0.667 1.36-1.48 0.013-0.813-0.6-1.48-1.36-1.48zM18.787 13.853c-0.76 0-1.36 0.667-1.36 1.48s0.613 1.48 1.36 1.48c0.76 0 1.36-0.667 1.36-1.48s-0.6-1.48-1.36-1.48z"></path>
<path fill="#7289DA" d="M25.267 2.667h-17.867c-1.507 0-2.733 1.227-2.733 2.747v18.027c0 1.52 1.227 2.747 2.733 2.747h15.12l-0.707-2.467 1.707 1.587 1.613 1.493 2.867 2.533v-23.92c0-1.52-1.227-2.747-2.733-2.747zM20.12 20.080s-0.48-0.573-0.88-1.080c1.747-0.493 2.413-1.587 2.413-1.587-0.547 0.36-1.067 0.613-1.533 0.787-0.667 0.28-1.307 0.467-1.933 0.573-1.28 0.24-2.453 0.173-3.453-0.013-0.76-0.147-1.413-0.36-1.96-0.573-0.307-0.12-0.64-0.267-0.973-0.453-0.040-0.027-0.080-0.040-0.12-0.067-0.027-0.013-0.040-0.027-0.053-0.040-0.24-0.133-0.373-0.227-0.373-0.227s0.64 1.067 2.333 1.573c-0.4 0.507-0.893 1.107-0.893 1.107-2.947-0.093-4.067-2.027-4.067-2.027 0-4.293 1.92-7.773 1.92-7.773 1.92-1.44 3.747-1.4 3.747-1.4l0.133 0.16c-2.4 0.693-3.507 1.747-3.507 1.747s0.293-0.16 0.787-0.387c1.427-0.627 2.56-0.8 3.027-0.84 0.080-0.013 0.147-0.027 0.227-0.027 0.813-0.107 1.733-0.133 2.693-0.027 1.267 0.147 2.627 0.52 4.013 1.28 0 0-1.053-1-3.32-1.693l0.187-0.213s1.827-0.040 3.747 1.4c0 0 1.92 3.48 1.92 7.773 0 0-1.133 1.933-4.080 2.027z"></path>
</svg>
