<svg height="24.234179mm" viewBox="0 0 100.24815 24.234179" width="100.24815mm" xmlns="http://www.w3.org/2000/svg"><g stroke-width=".264583" transform="translate(-53.276332 -60.225782)"><g fill="#fff"><path d="m60.866566 79.375q-1.227832 0-2.306836-.458887-1.079003-.471289-1.897558-1.277441-.806152-.818555-1.277442-1.897559-.458886-1.079004-.458886-2.306836v-3.943945h-1.649512v-3.373437h1.649512v-5.308203h3.373437v5.308203h5.13457v3.373437h-5.13457v3.943945q0 .533301.198438 1.00459.198437.458887.545703.806153.347265.347265.818555.558105.471289.198438 1.004589.198438h2.567285v3.373437z"/><path d="m69.324964 62.483008q0 .471289-.186035.880566-.173633.409278-.483691.719336-.310059.297657-.731739.483692-.409277.173633-.880566.173633-.471289 0-.892969-.173633-.409277-.186035-.719336-.483692-.297656-.310058-.483691-.719336-.173633-.409277-.173633-.880566 0-.458887.173633-.868164.186035-.42168.483691-.719336.310059-.310058.719336-.483691.42168-.186035.892969-.186035.471289 0 .880566.186035.42168.173633.731739.483691.310058.297656.483691.719336.186035.409277.186035.868164zm-.58291 16.891992h-3.410644v-13.28291h3.410644z"/><path d="m74.707582 79.375h-3.38584v-13.28291h.818555l1.116211 1.289844q.818555-.744141 1.847949-1.141016 1.041797-.409277 2.17041-.409277 1.21543 0 2.294434.471289 1.079004.458887 1.885156 1.277441.806152.806153 1.265039 1.897559.471289 1.079004.471289 2.306836v7.590234h-3.38584v-7.590234q0-.520899-.198437-.979785-.198438-.471289-.545703-.818555-.347266-.347266-.806153-.545703-.458886-.198438-.979785-.198438-.533301 0-1.00459.198438-.471289.198437-.818554.545703-.347266.347266-.545703.818555-.198438.458886-.198438.979785z"/><path d="m88.697423 84.435156v-3.410644l1.885157.0248q.496093 0 .95498-.16123.458887-.161231.84336-.446484.396875-.285254.694531-.682129.297656-.384473.483691-.84336-.558105.235645-1.141015.471289-.570508.235645-1.153418.235645-1.227832 0-2.306836-.434082-1.079004-.434082-1.897559-1.227832-.806152-.806152-1.277441-1.947168-.458887-1.153418-.458887-2.579688v-7.342183h3.373437v7.342187q0 .706934.198438 1.240235.21084.520898.558105.880566.347266.347266.806153.520899.471289.173632 1.00459.173632.520898 0 .979785-.235644.471289-.248047.818554-.644922.347266-.396875.545704-.892969.198437-.508496.198437-1.041797v-7.342187h3.410645v11.608594q-.0124 1.401464-.545704 2.629296-.5333 1.227832-1.463476 2.145606-.917774.917773-2.145606 1.451074-1.227832.533301-2.629296.533301z"/></g><path d="m112.63395 79.375h-.81856l-1.31464-1.823145q-.4837.434083-1.0294.818555-.5333.37207-1.12861.657324-.59532.272852-1.22783.434082-.62012.161231-1.26504.161231-1.40147 0-2.6417-.520899-1.22783-.5333-2.15801-1.463476-.91777-.942578-1.451075-2.22002-.533301-1.289843-.533301-2.802929 0-1.500684.533301-2.790528.533305-1.289843 1.451075-2.232421.93018-.942578 2.15801-1.475879 1.24023-.533301 2.6417-.533301.44648 0 .91777.07441.48369.07441.93018.248047.45888.16123.85576.434082.39687.272851.66972.669726v-6.201171h3.41065zm-3.41065-6.759277q0-.694531-.27285-1.339453-.26045-.657325-.71933-1.153418-.45889-.508496-1.07901-.806153-.60771-.310058-1.30224-.310058-.69453 0-1.31465.248047-.60772.248047-1.0666.719336-.44649.458886-.70694 1.128613-.26045.669726-.26045 1.513086 0 .731738.26045 1.389062.26045.657324.70694 1.153418.45888.496094 1.0666.781348.62012.285254 1.31465.285254.69453 0 1.30224-.297657.62012-.310058 1.07901-.806152.45888-.508496.71933-1.153418.27285-.657324.27285-1.351855z" fill="#999"/><path d="m128.07486 79.375h-.81855l-1.31465-1.823145q-.48369.434083-1.02939.818555-.5333.37207-1.12862.657324-.59531.272852-1.22783.434082-.62012.161231-1.26504.161231-1.40146 0-2.6417-.471289-1.22783-.471289-2.158-1.364258-.91778-.905371-1.45108-2.207617-.5333-1.302246-.5333-2.96416 0-1.550293.5333-2.840137.5333-1.302246 1.45108-2.232422.93017-.930176 2.158-1.438672 1.24024-.520898 2.6417-.520898.64492 0 1.27744.16123.63252.161231 1.22784.446485.59531.285254 1.12861.669726.5457.384473 1.01699.830957l1.31465-1.575097h.81855zm-3.41064-6.759277q0-.694531-.27285-1.339453-.26045-.657325-.71934-1.153418-.45888-.508496-1.079-.806153-.60772-.310058-1.30225-.310058-.69453 0-1.31465.235644-.60771.235645-1.0666.694532-.44648.458886-.70693 1.141015-.26045.669727-.26045 1.537891 0 .868164.26045 1.550293.26045.669726.70693 1.128613.45889.458887 1.0666.694531.62012.235645 1.31465.235645.69453 0 1.30225-.297657.62012-.310058 1.079-.806152.45889-.508496.71934-1.153418.27285-.657324.27285-1.351855z" fill="#999"/><path d="m134.04039 79.375h-3.38584v-13.28291h.81856l1.11621 1.575098q.81855-.744141 1.86035-1.141016 1.0418-.409277 2.15801-.409277h2.98896v3.373437h-2.98896q-.5333 0-1.00459.198438-.47129.198437-.81856.545703-.34726.347265-.5457.818554-.19844.47129-.19844 1.00459z" fill="#999"/><path d="m144.58239 79.375h-3.41065v-18.566308h3.41065v11.707812l5.04775-6.399609h3.89433l-4.40283 5.531445 4.40283 7.72666h-3.89433l-2.69131-4.824512-2.35644 3.125391z" fill="#999"/></g></svg>